# xmcd
#
# Track frame offsets: 
#        150
#        14287
#        30925
#        42600
#        61125
#        79575
#        91275
#        107850
#        126225
#        143475
#        158907
#
# Disc length: 2301 seconds
#
# Revision: 2
# Processed by: cddbd v1.5.1PL0 Copyright (c) Steve Scherf et al.
# Submitted via: ExactAudioCopy v0.95a5
#
DISCID=8308fb0b
DTITLE=Robert Earl Keen - No Kinda Dancer
DYEAR=1984
DGENRE=Folk
TTITLE0=No Kinda Dancer
TTITLE1=The Front Porch Song
TTITLE2=Between Hello and Goodbye
TTITLE3=Swervin' In My Lane
TTITLE4=Christabel
TTITLE5=Willie
TTITLE6=Young Lovers Waltz
TTITLE7=Death Of Tail Fitzsimmons
TTITLE8=Rolling By
TTITLE9=The Armadillo Jackal
TTITLE10=Song For Kathy
EXTD=
EXTT0=
EXTT1=
EXTT2=
EXTT3=
EXTT4=
EXTT5=
EXTT6=
EXTT7=
EXTT8=
EXTT9=
EXTT10=
PLAYORDER=
